<?xml version="1.0" encoding="UTF-8"?>
<svg version="1.1" xmlns="http://www.w3.org/2000/svg" width="659" height="72">
<path d="M0 0 C4.62 0 9.24 0 14 0 C17.34379102 3.45909416 18.81271269 5.82385018 21 10 C22.51490667 12.55039242 24.06139214 15.08037543 25.60693359 17.61230469 C27.65461584 20.97744075 29.66352986 24.3646895 31.66894531 27.75512695 C33.1039224 30.17526898 34.55242373 32.58737288 36 35 C36.33 23.45 36.66 11.9 37 0 C40.96 0 44.92 0 49 0 C49 19.14 49 38.28 49 58 C44.71 58 40.42 58 36 58 C33.01245015 54.99914257 31.69898857 53.25232952 29.875 49.625 C28.89858376 47.89184467 27.92201726 46.158774 26.9453125 44.42578125 C26.46481445 43.53197754 25.98431641 42.63817383 25.48925781 41.71728516 C23.56844174 38.21258304 21.48441294 34.82362227 19.37451172 31.43041992 C17.22605611 27.9681582 15.11685632 24.48167158 13 21 C12.67 33.21 12.34 45.42 12 58 C8.04 58 4.08 58 0 58 C0 38.86 0 19.72 0 0 Z " fill="#191919" transform="translate(470,8)"/>
<path d="M0 0 C4.62 0 9.24 0 14 0 C17.24972763 3.52540313 18.88580166 5.87616641 21 10 C22.22573712 11.9978265 23.46298792 13.98862902 24.7109375 15.97265625 C25.93575085 18.00051887 27.15708904 20.03048439 28.375 22.0625 C29.61076763 24.11661477 30.84768189 26.17004031 32.0859375 28.22265625 C32.6226709 29.11734619 33.1594043 30.01203613 33.71240234 30.93383789 C34.83774846 32.91312623 34.83774846 32.91312623 36 34 C36.33 22.78 36.66 11.56 37 0 C40.96 0 44.92 0 49 0 C49 19.14 49 38.28 49 58 C44.71 58 40.42 58 36 58 C32.54946718 54.12643754 30.53588064 51.2837106 28.1875 46.8125 C27.59775391 45.77673828 27.00800781 44.74097656 26.40039062 43.67382812 C24.57390958 40.46407091 22.78724992 37.2317661 21 34 C18.36 29.71 15.72 25.42 13 21 C12.67 33.21 12.34 45.42 12 58 C8.04 58 4.08 58 0 58 C0 38.86 0 19.72 0 0 Z " fill="#191919" transform="translate(335,8)"/>
<path d="M0 0 C7.1775 -0.12375 7.1775 -0.12375 14.5 -0.25 C15.99337891 -0.28641602 17.48675781 -0.32283203 19.02539062 -0.36035156 C26.49177746 -0.42260492 31.72796856 -0.20467039 38 4 C41.84209765 8.08997491 42.35184823 12.23002306 42.28125 17.6484375 C41.80742367 21.61015212 40.37765845 23.78694804 38 27 C35.25 28.9375 35.25 28.9375 33 30 C34.11955078 31.13308594 34.11955078 31.13308594 35.26171875 32.2890625 C38.94908189 36.71389827 40.22113427 41.92992963 41.8125 47.375 C42.12380859 48.39722656 42.43511719 49.41945312 42.75585938 50.47265625 C43.51679548 52.97789204 44.26017938 55.48844758 45 58 C40.71 58 36.42 58 32 58 C31.54109375 56.59105469 31.0821875 55.18210938 30.609375 53.73046875 C29.99028451 51.88257744 29.37045415 50.03493389 28.75 48.1875 C28.44964844 47.25873047 28.14929688 46.32996094 27.83984375 45.37304688 C27.53691406 44.48037109 27.23398438 43.58769531 26.921875 42.66796875 C26.64956055 41.84578857 26.37724609 41.0236084 26.09667969 40.17651367 C24.69361448 37.39193524 23.7861424 36.44960728 21 35 C18.03 34.67 15.06 34.34 12 34 C12 41.92 12 49.84 12 58 C8.04 58 4.08 58 0 58 C0 38.86 0 19.72 0 0 Z M12 10 C12 14.62 12 19.24 12 24 C15.34125 24.12375 15.34125 24.12375 18.75 24.25 C20.62945312 24.31960937 20.62945312 24.31960937 22.546875 24.390625 C26.04024918 24.29209792 26.04024918 24.29209792 28.421875 22.171875 C30.22440711 20.03128573 30.22440711 20.03128573 30.5 17 C29.87352624 13.24115741 29.02227202 12.28132791 26 10 C22.4964365 9.51675794 22.4964365 9.51675794 18.75 9.75 C15.40875 9.87375 15.40875 9.87375 12 10 Z " fill="#181818" transform="translate(71,8)"/>
<path d="M0 0 C2.62697064 -0.22137393 5.00893964 -0.28162025 7.625 -0.1875 C8.33140625 -0.17396484 9.0378125 -0.16042969 9.765625 -0.14648438 C11.51074128 -0.1111104 13.25546608 -0.05730221 15 0 C17.83639507 6.92319598 20.43634462 13.90175539 22.890625 20.96875 C23.24010193 21.97087524 23.58957886 22.97300049 23.949646 24.00549316 C24.68016219 26.10254 25.40949873 28.19999812 26.13769531 30.29785156 C27.25704965 33.52029483 28.38223263 36.74066424 29.5078125 39.9609375 C30.21910077 42.00508631 30.93005064 44.04935291 31.640625 46.09375 C32.14677338 47.5405011 32.14677338 47.5405011 32.66314697 49.01647949 C32.97056824 49.9050061 33.2779895 50.79353271 33.59472656 51.70898438 C33.86690002 52.49156616 34.13907349 53.27414795 34.41949463 54.08044434 C35 56 35 56 35 58 C30.71 58 26.42 58 22 58 C18 47.25 18 47.25 18 45 C7.605 45.495 7.605 45.495 -3 46 C-4.32 49.96 -5.64 53.92 -7 58 C-11.29 58 -15.58 58 -20 58 C-18.06835632 50.70488827 -15.93644658 43.54580327 -13.49609375 36.40625 C-13.17214127 35.45230347 -12.84818878 34.49835693 -12.51441956 33.51550293 C-11.83624379 31.52180744 -11.1563722 29.52868804 -10.47485352 27.53613281 C-9.43126174 24.48174183 -8.39602824 21.42460046 -7.36132812 18.3671875 C-6.69841628 16.42170469 -6.03502225 14.4763861 -5.37109375 12.53125 C-5.06272079 11.61879517 -4.75434784 10.70634033 -4.43663025 9.76623535 C-4.14615311 8.92105347 -3.85567596 8.07587158 -3.55639648 7.20507812 C-3.17692116 6.09235535 -3.17692116 6.09235535 -2.78977966 4.95715332 C-2 3 -2 3 0 0 Z M7 14 C4.24334756 20.57678502 1.95931288 27.14240492 0 34 C4.62 34 9.24 34 14 34 C12.20532905 27.24861881 10.29690099 20.59748156 8 14 C7.67 14 7.34 14 7 14 Z " fill="#1B1B1B" transform="translate(187,8)"/>
<path d="M0 0 C2.62697064 -0.22137393 5.00893964 -0.28162025 7.625 -0.1875 C8.33140625 -0.17396484 9.0378125 -0.16042969 9.765625 -0.14648438 C11.51074128 -0.1111104 13.25546608 -0.05730221 15 0 C17.83639507 6.92319598 20.43634462 13.90175539 22.890625 20.96875 C23.24010193 21.97087524 23.58957886 22.97300049 23.949646 24.00549316 C24.68016219 26.10254 25.40949873 28.19999812 26.13769531 30.29785156 C27.25704965 33.52029483 28.38223263 36.74066424 29.5078125 39.9609375 C30.21910077 42.00508631 30.93005064 44.04935291 31.640625 46.09375 C32.14677338 47.5405011 32.14677338 47.5405011 32.66314697 49.01647949 C32.97056824 49.9050061 33.2779895 50.79353271 33.59472656 51.70898438 C33.86690002 52.49156616 34.13907349 53.27414795 34.41949463 54.08044434 C35 56 35 56 35 58 C30.71 58 26.42 58 22 58 C18 47.25 18 47.25 18 45 C7.605 45.495 7.605 45.495 -3 46 C-4.32 49.96 -5.64 53.92 -7 58 C-11.29 58 -15.58 58 -20 58 C-18.06835632 50.70488827 -15.93644658 43.54580327 -13.49609375 36.40625 C-13.17214127 35.45230347 -12.84818878 34.49835693 -12.51441956 33.51550293 C-11.83624379 31.52180744 -11.1563722 29.52868804 -10.47485352 27.53613281 C-9.43126174 24.48174183 -8.39602824 21.42460046 -7.36132812 18.3671875 C-6.69841628 16.42170469 -6.03502225 14.4763861 -5.37109375 12.53125 C-5.06272079 11.61879517 -4.75434784 10.70634033 -4.43663025 9.76623535 C-4.14615311 8.92105347 -3.85567596 8.07587158 -3.55639648 7.20507812 C-3.17692116 6.09235535 -3.17692116 6.09235535 -2.78977966 4.95715332 C-2 3 -2 3 0 0 Z M7 14 C4.24334756 20.57678502 1.95931288 27.14240492 0 34 C4.62 34 9.24 34 14 34 C12.20532905 27.24861881 10.29690099 20.59748156 8 14 C7.67 14 7.34 14 7 14 Z " fill="#1B1B1B" transform="translate(29,8)"/>
<path d="M0 0 C12.54 0 25.08 0 38 0 C38 3.3 38 6.6 38 10 C29.42 10 20.84 10 12 10 C12 14.29 12 18.58 12 23 C19.59 23 27.18 23 35 23 C35 26.3 35 29.6 35 33 C27.41 33 19.82 33 12 33 C12 37.95 12 42.9 12 48 C20.91 48 29.82 48 39 48 C39 51.3 39 54.6 39 58 C26.13 58 13.26 58 0 58 C0 38.86 0 19.72 0 0 Z " fill="#101010" transform="translate(125,8)"/>
<path d="M0 0 C12.21 0 24.42 0 37 0 C37 3.3 37 6.6 37 10 C28.75 10 20.5 10 12 10 C12 14.62 12 19.24 12 24 C14.36478516 23.98259766 14.36478516 23.98259766 16.77734375 23.96484375 C18.83072799 23.95546757 20.8841135 23.94636718 22.9375 23.9375 C23.97841797 23.92912109 25.01933594 23.92074219 26.09179688 23.91210938 C27.08115234 23.90888672 28.07050781 23.90566406 29.08984375 23.90234375 C30.46450806 23.89448853 30.46450806 23.89448853 31.86694336 23.88647461 C34 24 34 24 35 25 C35 28.3 35 31.6 35 35 C27.41 35 19.82 35 12 35 C12 42.59 12 50.18 12 58 C8.04 58 4.08 58 0 58 C0 38.86 0 19.72 0 0 Z " fill="#171717" transform="translate(398,8)"/>
<path d="M0 0 C4.5566445 -0.81269422 8.47799076 -1.10848795 13 0 C16.65588705 3.86691329 18.7441036 8.24432651 21 13 C21.81883668 14.40438656 22.64848503 15.80268326 23.5 17.1875 C25 20 25 20 25 22 C25.66 22 26.32 22 27 22 C27.23460937 21.18273437 27.46921875 20.36546875 27.7109375 19.5234375 C29.26733657 15.26928005 31.36169958 11.53626604 33.625 7.625 C34.04523437 6.88894531 34.46546875 6.15289062 34.8984375 5.39453125 C35.92752764 3.5936235 36.96310756 1.79642682 38 0 C42.29 0 46.58 0 51 0 C50.09831409 4.50842953 49.21948089 6.72985164 46.9453125 10.5625 C46.33042969 11.60664063 45.71554687 12.65078125 45.08203125 13.7265625 C44.43621094 14.80679687 43.79039062 15.88703125 43.125 17 C42.16787109 18.62035156 42.16787109 18.62035156 41.19140625 20.2734375 C36.25410877 28.62252093 36.25410877 28.62252093 34.32446289 31.48901367 C32.77749888 34.42182932 32.57654083 36.4373731 32.48828125 39.73828125 C32.45283203 40.80498047 32.41738281 41.87167969 32.38085938 42.97070312 C32.35830078 44.07349609 32.33574219 45.17628906 32.3125 46.3125 C32.27833984 47.43462891 32.24417969 48.55675781 32.20898438 49.71289062 C32.12671135 52.47491357 32.06167377 55.23744033 32 58 C28.04 58 24.08 58 20 58 C20.06703125 56.58332031 20.1340625 55.16664062 20.203125 53.70703125 C20.48514341 38.48989785 16.88600293 28.80613538 8.49316406 16.25 C6.4503396 13.17173476 4.60006389 10.0101413 2.75 6.8125 C2.20859375 5.91144531 1.6671875 5.01039062 1.109375 4.08203125 C0 2 0 2 0 0 Z " fill="#1B1B1B" transform="translate(599,8)"/>
<path d="M0 0 C14.85 0 29.7 0 45 0 C45 3.3 45 6.6 45 10 C39.72 10 34.44 10 29 10 C29 25.84 29 41.68 29 58 C24.71 58 20.42 58 16 58 C16 42.16 16 26.32 16 10 C10.72 10 5.44 10 0 10 C0 6.7 0 3.4 0 0 Z " fill="#1C1C1C" transform="translate(553,8)"/>
<path d="M0 0 C3.96 0 7.92 0 12 0 C12 19.14 12 38.28 12 58 C8.04 58 4.08 58 0 58 C0 38.86 0 19.72 0 0 Z " fill="#131313" transform="translate(533,8)"/>
<path d="M0 0 C3.96 0 7.92 0 12 0 C12 19.14 12 38.28 12 58 C8.04 58 4.08 58 0 58 C0 38.86 0 19.72 0 0 Z " fill="#131313" transform="translate(444,8)"/>
<path d="M0 0 C3.96 0 7.92 0 12 0 C12 19.14 12 38.28 12 58 C8.04 58 4.08 58 0 58 C0 38.86 0 19.72 0 0 Z " fill="#131313" transform="translate(309,8)"/>
<path d="M0 0 C3.3 0 6.6 0 10 0 C10 4.29 10 8.58 10 13 C14.29 13 18.58 13 23 13 C23 16.3 23 19.6 23 23 C18.71 23 14.42 23 10 23 C10 27.29 10 31.58 10 36 C6.7 36 3.4 36 0 36 C0 31.71 0 27.42 0 23 C-4.29 23 -8.58 23 -13 23 C-13 19.7 -13 16.4 -13 13 C-8.71 13 -4.42 13 0 13 C0 8.71 0 4.42 0 0 Z " fill="#181818" transform="translate(257,19)"/>
</svg>
